<svg width="56" height="32" viewBox="0 0 56 32" fill="none" xmlns="http://www.w3.org/2000/svg">
<path fill-rule="evenodd" clip-rule="evenodd" d="M56 3.07692V2C56 0.895432 55.1046 0 54 0H2C0.895431 0 0 0.895432 0 2V3.07692C0 3.07692 2.8 3.69231 2.8 5.84615C2.8 8 0 8.61539 0 8.61539V23.3846C0 23.3846 2.8 24 2.8 26.1538C2.8 28.3077 0 28.9231 0 28.9231V30C0 31.1046 0.89543 32 2 32H54C55.1046 32 56 31.1046 56 30V28.9231C56 28.9231 53.2 28.3077 53.2 26.1538C53.2 24 56 23.3846 56 23.3846V8.61539C56 8.61539 53.2 8 53.2 5.84615C53.2 3.69231 56 3.07692 56 3.07692ZM55 9.3436C54.7299 9.23786 54.4088 9.09135 54.0827 8.89429C53.2499 8.39091 52.2 7.43176 52.2 5.84615C52.2 4.26055 53.2499 3.3014 54.0827 2.79802C54.4088 2.60096 54.7299 2.45445 55 2.34871V2C55 1.44771 54.5523 1 54 1H2C1.44772 1 1 1.44772 1 2V2.34871C1.27012 2.45445 1.59121 2.60096 1.91726 2.79802C2.75013 3.3014 3.8 4.26055 3.8 5.84615C3.8 7.43176 2.75013 8.39091 1.91726 8.89429C1.59121 9.09135 1.27012 9.23786 1 9.3436V22.6564C1.27012 22.7621 1.59121 22.9086 1.91726 23.1057C2.75013 23.6091 3.8 24.5682 3.8 26.1538C3.8 27.7395 2.75013 28.6986 1.91726 29.202C1.59121 29.399 1.27012 29.5456 1 29.6513V30C1 30.5523 1.44771 31 2 31H54C54.5523 31 55 30.5523 55 30V29.6513C54.7299 29.5456 54.4088 29.399 54.0827 29.202C53.2499 28.6986 52.2 27.7395 52.2 26.1538C52.2 24.5682 53.2499 23.6091 54.0827 23.1057C54.4088 22.9086 54.7299 22.7621 55 22.6564V9.3436Z" fill="#78909C"/>
<path d="M12.5613 13V7.416H14.7693C15.2493 7.416 15.6093 7.56 15.8493 7.848C16.0946 8.13067 16.2173 8.54133 16.2173 9.08C16.2173 9.61867 16.0946 10.032 15.8493 10.32C15.6093 10.6027 15.2493 10.744 14.7693 10.744H13.4093V13H12.5613ZM13.4093 9.992H14.6973C14.9 9.992 15.052 9.94133 15.1533 9.84C15.26 9.73333 15.3133 9.56533 15.3133 9.336V8.824C15.3133 8.59467 15.26 8.42933 15.1533 8.328C15.052 8.22133 14.9 8.168 14.6973 8.168H13.4093V9.992ZM17.9562 13H17.1082V7.416H19.3162C19.7962 7.416 20.1562 7.56 20.3962 7.848C20.6415 8.13067 20.7642 8.53867 20.7642 9.072C20.7642 9.504 20.6842 9.85333 20.5242 10.12C20.3642 10.3867 20.1242 10.5653 19.8042 10.656L20.8682 13H19.9242L18.9562 10.72H17.9562V13ZM19.2442 10.008C19.4469 10.008 19.5989 9.95733 19.7002 9.856C19.8069 9.74933 19.8602 9.57867 19.8602 9.344V8.824C19.8602 8.58933 19.8069 8.42133 19.7002 8.32C19.5989 8.21333 19.4469 8.16 19.2442 8.16H17.9562V10.008H19.2442ZM21.8426 13V7.416H25.0826V8.16H22.6906V9.792H24.8506V10.528H22.6906V12.256H25.0826V13H21.8426ZM27.2368 13L25.5968 7.416H26.4848L27.4768 10.928L27.7088 12.232H27.8128L28.0448 10.928L29.0288 7.416H29.9008L28.2688 13H27.2368ZM30.4313 13V12.32H31.1113V8.096H30.4313V7.416H32.6393V8.096H31.9593V12.32H32.6393V13H30.4313ZM33.6629 13V7.416H36.9029V8.16H34.5109V9.792H36.6709V10.528H34.5109V12.256H36.9029V13H33.6629ZM38.6959 13L37.5119 7.416H38.3759L39.0319 10.8L39.2079 12.096H39.3119L39.4879 10.816L40.1919 7.416H41.2239L41.9359 10.816L42.1119 12.096H42.2159L42.3919 10.8L43.0479 7.416H43.8799L42.6559 13H41.6399L40.9199 9.56L40.7439 8.272H40.6479L40.4719 9.56L39.7199 13H38.6959ZM11.2527 19.416H13.0927C13.4234 19.416 13.7167 19.4693 13.9727 19.576C14.2341 19.6827 14.4527 19.8507 14.6287 20.08C14.8101 20.304 14.9461 20.592 15.0367 20.944C15.1327 21.296 15.1807 21.7173 15.1807 22.208C15.1807 22.6987 15.1327 23.12 15.0367 23.472C14.9461 23.824 14.8101 24.1147 14.6287 24.344C14.4527 24.568 14.2341 24.7333 13.9727 24.84C13.7167 24.9467 13.4234 25 13.0927 25H11.2527V19.416ZM13.0927 24.256C13.4607 24.256 13.7487 24.1387 13.9567 23.904C14.1647 23.664 14.2687 23.3147 14.2687 22.856V21.56C14.2687 21.1013 14.1647 20.7547 13.9567 20.52C13.7487 20.28 13.4607 20.16 13.0927 20.16H12.1007V24.256H13.0927ZM15.9742 25V24.32H16.6542V20.096H15.9742V19.416H18.1822V20.096H17.5022V24.32H18.1822V25H15.9742ZM20.7178 25.096C20.3018 25.096 19.9392 25.0187 19.6298 24.864C19.3258 24.704 19.0645 24.4747 18.8458 24.176L19.4298 23.64C19.5952 23.8693 19.7845 24.0453 19.9978 24.168C20.2112 24.2907 20.4538 24.352 20.7258 24.352C21.3872 24.352 21.7178 24.048 21.7178 23.44C21.7178 23.1947 21.6592 23.008 21.5418 22.88C21.4245 22.7467 21.2218 22.6453 20.9338 22.576L20.4778 22.48C19.9765 22.368 19.6058 22.1893 19.3658 21.944C19.1312 21.6933 19.0138 21.344 19.0138 20.896C19.0138 20.3787 19.1685 19.9867 19.4778 19.72C19.7925 19.4533 20.2298 19.32 20.7898 19.32C21.1898 19.32 21.5258 19.3893 21.7978 19.528C22.0752 19.6613 22.3152 19.872 22.5178 20.16L21.9338 20.672C21.7898 20.4693 21.6272 20.3173 21.4458 20.216C21.2698 20.1147 21.0458 20.064 20.7738 20.064C20.4698 20.064 20.2405 20.128 20.0858 20.256C19.9365 20.3787 19.8618 20.584 19.8618 20.872C19.8618 21.1067 19.9205 21.2853 20.0378 21.408C20.1605 21.5253 20.3578 21.616 20.6298 21.68L21.0858 21.784C21.3525 21.8427 21.5792 21.9173 21.7658 22.008C21.9525 22.0933 22.1045 22.2 22.2218 22.328C22.3445 22.456 22.4325 22.608 22.4858 22.784C22.5392 22.9547 22.5658 23.1547 22.5658 23.384C22.5658 23.944 22.4032 24.3707 22.0778 24.664C21.7578 24.952 21.3045 25.096 20.7178 25.096ZM26.6385 25L26.2065 23.456H24.3265L23.8945 25H23.0625L24.7345 19.416H25.8145L27.4945 25H26.6385ZM25.4865 21L25.3105 20.184H25.2065L25.0305 21L24.5345 22.76H26.0065L25.4865 21ZM28.2762 19.416H30.5402C30.9722 19.416 31.3002 19.5387 31.5242 19.784C31.7482 20.0293 31.8602 20.3867 31.8602 20.856C31.8602 21.2133 31.7828 21.4933 31.6282 21.696C31.4735 21.8987 31.2522 22.0133 30.9642 22.04V22.136C31.1242 22.136 31.2682 22.168 31.3962 22.232C31.5295 22.2907 31.6442 22.376 31.7402 22.488C31.8362 22.6 31.9108 22.7333 31.9642 22.888C32.0175 23.0427 32.0442 23.2107 32.0442 23.392C32.0442 23.632 32.0122 23.8507 31.9482 24.048C31.8895 24.2453 31.8042 24.416 31.6922 24.56C31.5802 24.6987 31.4442 24.808 31.2842 24.888C31.1295 24.9627 30.9562 25 30.7642 25H28.2762V19.416ZM29.1242 24.256H30.5162C30.7188 24.256 30.8735 24.2027 30.9802 24.096C31.0868 23.984 31.1402 23.808 31.1402 23.568V23.2C31.1402 22.96 31.0868 22.7867 30.9802 22.68C30.8735 22.568 30.7188 22.512 30.5162 22.512H29.1242V24.256ZM29.1242 21.784H30.3802C30.5668 21.784 30.7108 21.736 30.8122 21.64C30.9135 21.5387 30.9642 21.376 30.9642 21.152V20.792C30.9642 20.568 30.9135 20.408 30.8122 20.312C30.7108 20.2107 30.5668 20.16 30.3802 20.16H29.1242V21.784ZM33.034 25V19.416H33.882V24.256H35.914V25H33.034ZM36.7527 25V19.416H39.9927V20.16H37.6007V21.792H39.7607V22.528H37.6007V24.256H39.9927V25H36.7527ZM41.0418 19.416H42.8818C43.2124 19.416 43.5058 19.4693 43.7618 19.576C44.0231 19.6827 44.2418 19.8507 44.4178 20.08C44.5991 20.304 44.7351 20.592 44.8258 20.944C44.9218 21.296 44.9698 21.7173 44.9698 22.208C44.9698 22.6987 44.9218 23.12 44.8258 23.472C44.7351 23.824 44.5991 24.1147 44.4178 24.344C44.2418 24.568 44.0231 24.7333 43.7618 24.84C43.5058 24.9467 43.2124 25 42.8818 25H41.0418V19.416ZM42.8818 24.256C43.2498 24.256 43.5378 24.1387 43.7458 23.904C43.9538 23.664 44.0578 23.3147 44.0578 22.856V21.56C44.0578 21.1013 43.9538 20.7547 43.7458 20.52C43.5378 20.28 43.2498 20.16 42.8818 20.16H41.8898V24.256H42.8818Z" fill="#78909C"/>
</svg>
