<svg width="56" height="32" viewBox="0 0 56 32" fill="none" xmlns="http://www.w3.org/2000/svg">
<path fill-rule="evenodd" clip-rule="evenodd" d="M56 3.07692V2C56 0.895432 55.1046 0 54 0H2C0.895431 0 0 0.895432 0 2V3.07692C0 3.07692 2.8 3.69231 2.8 5.84615C2.8 8 0 8.61539 0 8.61539V23.3846C0 23.3846 2.8 24 2.8 26.1538C2.8 28.3077 0 28.9231 0 28.9231V30C0 31.1046 0.89543 32 2 32H54C55.1046 32 56 31.1046 56 30V28.9231C56 28.9231 53.2 28.3077 53.2 26.1538C53.2 24 56 23.3846 56 23.3846V8.61539C56 8.61539 53.2 8 53.2 5.84615C53.2 3.69231 56 3.07692 56 3.07692ZM55 9.3436C54.7299 9.23786 54.4088 9.09135 54.0827 8.89429C53.2499 8.39091 52.2 7.43176 52.2 5.84615C52.2 4.26055 53.2499 3.3014 54.0827 2.79802C54.4088 2.60096 54.7299 2.45445 55 2.34871V2C55 1.44771 54.5523 1 54 1H2C1.44772 1 1 1.44772 1 2V2.34871C1.27012 2.45445 1.59121 2.60096 1.91726 2.79802C2.75013 3.3014 3.8 4.26055 3.8 5.84615C3.8 7.43176 2.75013 8.39091 1.91726 8.89429C1.59121 9.09135 1.27012 9.23786 1 9.3436V22.6564C1.27012 22.7621 1.59121 22.9086 1.91726 23.1057C2.75013 23.6091 3.8 24.5682 3.8 26.1538C3.8 27.7395 2.75013 28.6986 1.91726 29.202C1.59121 29.399 1.27012 29.5456 1 29.6513V30C1 30.5523 1.44771 31 2 31H54C54.5523 31 55 30.5523 55 30V29.6513C54.7299 29.5456 54.4088 29.399 54.0827 29.202C53.2499 28.6986 52.2 27.7395 52.2 26.1538C52.2 24.5682 53.2499 23.6091 54.0827 23.1057C54.4088 22.9086 54.7299 22.7621 55 22.6564V9.3436Z" fill="#C6CACC"/>
<path d="M23.7124 15.648L23.2884 14.608H23.1844L23.2484 15.664V19H22.4324V13.416H23.4084L25.0724 16.768L25.5044 17.808H25.6084L25.5444 16.752V13.416H26.3604V19H25.3764L23.7124 15.648ZM27.0207 20.208L29.0367 13.08H29.7327L27.7167 20.208H27.0207ZM33.162 19L32.73 17.456H30.85L30.418 19H29.586L31.258 13.416H32.338L34.018 19H33.162ZM32.01 15L31.834 14.184H31.73L31.554 15L31.058 16.76H32.53L32.01 15Z" fill="#C6CACC"/>
</svg>
