<svg width="24" height="24" viewBox="0 0 24 24" fill="none" xmlns="http://www.w3.org/2000/svg">
<path fill-rule="evenodd" clip-rule="evenodd" d="M7.5 5.25C7.5 4.83579 7.83579 4.5 8.25 4.5C8.66421 4.5 9 4.83579 9 5.25V6.5H15V5.25C15 4.83579 15.3358 4.5 15.75 4.5C16.1642 4.5 16.5 4.83579 16.5 5.25V6.5H20C20.5523 6.5 21 6.94772 21 7.5V18.5C21 19.0523 20.5523 19.5 20 19.5H4C3.44772 19.5 3 19.0523 3 18.5V7.5C3 6.94772 3.44772 6.5 4 6.5H7.5V5.25ZM15 8.2V8.75C15 9.16421 15.3358 9.5 15.75 9.5C16.1642 9.5 16.5 9.16421 16.5 8.75V8.2H19.3V10.5H4.7V8.2H7.5V8.75C7.5 9.16421 7.83579 9.5 8.25 9.5C8.66421 9.5 9 9.16421 9 8.75V8.2H15ZM4.7 12V17.8H19.3V12H4.7Z" fill="currentColor"/>
</svg>
