<svg width="18" height="15" viewBox="0 0 18 15" xmlns="http://www.w3.org/2000/svg">
<path fill-rule="evenodd" clip-rule="evenodd" d="M4.5 0.75C4.5 0.335786 4.83579 0 5.25 0C5.66421 0 6 0.335786 6 0.75V2H12V0.75C12 0.335786 12.3358 0 12.75 0C13.1642 0 13.5 0.335786 13.5 0.75V2H17C17.5523 2 18 2.44772 18 3V14C18 14.5523 17.5523 15 17 15H1C0.447716 15 0 14.5523 0 14V3C0 2.44772 0.447715 2 1 2H4.5V0.75ZM12 3.7V4.25C12 4.66421 12.3358 5 12.75 5C13.1642 5 13.5 4.66421 13.5 4.25V3.7H16.3V6H1.7V3.7H4.5V4.25C4.5 4.66421 4.83579 5 5.25 5C5.66421 5 6 4.66421 6 4.25V3.7H12ZM1.7 7.5V13.3H16.3V7.5H1.7Z" />
</svg>
