<svg width="25" height="24" viewBox="0 0 25 24" fill="none" xmlns="http://www.w3.org/2000/svg">
<path d="M13.2 10.5H15V16H13.2V10.5Z" fill="currentColor"/>
<path d="M16.8 7H18.6V16H16.8V7Z" fill="currentColor"/>
<path d="M9.6 9H11.4V16H9.6V9Z" fill="currentColor"/>
<path d="M6 13H7.8V16H6V13Z" fill="currentColor"/>
<path fill-rule="evenodd" clip-rule="evenodd" d="M19.5 5.6H5.5C5.27909 5.6 5.1 5.77909 5.1 6V17C5.1 17.2209 5.27909 17.4 5.5 17.4H19.5C19.7209 17.4 19.9 17.2209 19.9 17V6C19.9 5.77909 19.7209 5.6 19.5 5.6ZM5.5 4C4.39543 4 3.5 4.89543 3.5 6V17C3.5 18.1046 4.39543 19 5.5 19H19.5C20.6046 19 21.5 18.1046 21.5 17V6C21.5 4.89543 20.6046 4 19.5 4H5.5Z" fill="currentColor"/>
</svg>
