<svg width="25" height="24" viewBox="0 0 25 24" fill="none" xmlns="http://www.w3.org/2000/svg">
<path fill-rule="evenodd" clip-rule="evenodd" d="M9.5 6C9.5 5.44771 9.94772 5 10.5 5C11.0523 5 11.5 5.44772 11.5 6V16H13.5V9C13.5 8.44772 13.9477 8 14.5 8C15.0523 8 15.5 8.44772 15.5 9V16H17.5V13C17.5 12.4477 17.9477 12 18.5 12C19.0523 12 19.5 12.4477 19.5 13V16H20.5C21.0523 16 21.5 16.4477 21.5 17C21.5 17.5523 21.0523 18 20.5 18H4.5C3.94772 18 3.5 17.5523 3.5 17C3.5 16.4477 3.94772 16 4.5 16H5.5V11C5.5 10.4477 5.94772 10 6.5 10C7.05228 10 7.5 10.4477 7.5 11V16H9.5V6Z" fill="currentColor"/>
</svg>
