<svg width="24" height="25" viewBox="0 0 24 25" fill="none" xmlns="http://www.w3.org/2000/svg">
<path d="M18.295 7.615C18.6844 7.22564 18.6844 6.59436 18.295 6.205C17.9056 5.81564 17.2744 5.81564 16.885 6.205L12 11.09L7.115 6.205C6.72564 5.81564 6.09436 5.81564 5.705 6.205C5.31564 6.59436 5.31564 7.22564 5.705 7.615L10.59 12.5L5.705 17.385C5.31564 17.7744 5.31564 18.4056 5.705 18.795C6.09436 19.1844 6.72564 19.1844 7.115 18.795L12 13.91L16.885 18.795C17.2744 19.1844 17.9056 19.1844 18.295 18.795C18.6844 18.4056 18.6844 17.7744 18.295 17.385L13.41 12.5L18.295 7.615Z" fill="currentColor"/>
</svg>
