<svg width="24" height="24" viewBox="0 0 24 24" fill="none" xmlns="http://www.w3.org/2000/svg">
<path fill-rule="evenodd" clip-rule="evenodd" d="M19 5.5H5C4.72386 5.5 4.5 5.72386 4.5 6V8C4.5 8.27614 4.72386 8.5 5 8.5H19C19.2761 8.5 19.5 8.27614 19.5 8V6C19.5 5.72386 19.2761 5.5 19 5.5ZM5 4C3.89543 4 3 4.89543 3 6V8C3 9.10457 3.89543 10 5 10H19C20.1046 10 21 9.10457 21 8V6C21 4.89543 20.1046 4 19 4H5ZM8 7C8 7.55228 7.55228 8 7 8C6.44772 8 6 7.55228 6 7C6 6.44772 6.44772 6 7 6C7.55228 6 8 6.44772 8 7ZM15.5 6.5C15.2239 6.5 15 6.72386 15 7C15 7.27614 15.2239 7.5 15.5 7.5H17.5C17.7761 7.5 18 7.27614 18 7C18 6.72386 17.7761 6.5 17.5 6.5H15.5Z" fill="currentColor"/>
<path fill-rule="evenodd" clip-rule="evenodd" d="M19 10.5H5C4.72386 10.5 4.5 10.7239 4.5 11V13C4.5 13.2761 4.72386 13.5 5 13.5H19C19.2761 13.5 19.5 13.2761 19.5 13V11C19.5 10.7239 19.2761 10.5 19 10.5ZM5 9C3.89543 9 3 9.89543 3 11V13C3 14.1046 3.89543 15 5 15H19C20.1046 15 21 14.1046 21 13V11C21 9.89543 20.1046 9 19 9H5ZM8 12C8 12.5523 7.55228 13 7 13C6.44772 13 6 12.5523 6 12C6 11.4477 6.44772 11 7 11C7.55228 11 8 11.4477 8 12ZM15.5 11.5C15.2239 11.5 15 11.7239 15 12C15 12.2761 15.2239 12.5 15.5 12.5H17.5C17.7761 12.5 18 12.2761 18 12C18 11.7239 17.7761 11.5 17.5 11.5H15.5Z" fill="currentColor"/>
<path fill-rule="evenodd" clip-rule="evenodd" d="M19 15.5H5C4.72386 15.5 4.5 15.7239 4.5 16V18C4.5 18.2761 4.72386 18.5 5 18.5H19C19.2761 18.5 19.5 18.2761 19.5 18V16C19.5 15.7239 19.2761 15.5 19 15.5ZM5 14C3.89543 14 3 14.8954 3 16V18C3 19.1046 3.89543 20 5 20H19C20.1046 20 21 19.1046 21 18V16C21 14.8954 20.1046 14 19 14H5ZM8 17C8 17.5523 7.55228 18 7 18C6.44772 18 6 17.5523 6 17C6 16.4477 6.44772 16 7 16C7.55228 16 8 16.4477 8 17ZM15.5 16.5C15.2239 16.5 15 16.7239 15 17C15 17.2761 15.2239 17.5 15.5 17.5H17.5C17.7761 17.5 18 17.2761 18 17C18 16.7239 17.7761 16.5 17.5 16.5H15.5Z" fill="currentColor"/>
</svg>
