<svg width="11" height="10" viewBox="0 0 11 10" fill="none" xmlns="http://www.w3.org/2000/svg">
<path fill-rule="evenodd" clip-rule="evenodd" d="M5.17968 9C2.97213 9 1.18164 7.20857 1.18164 5C1.18164 2.79143 2.97213 1 5.17968 1C7.38722 1 9.17771 2.79143 9.17771 5C9.17771 7.20857 7.38722 9 5.17968 9ZM0.181641 5C0.181641 2.23966 2.41934 0 5.17968 0C7.94002 0 10.1777 2.23966 10.1777 5C10.1777 7.76034 7.94002 10 5.17968 10C2.41934 10 0.181641 7.76034 0.181641 5ZM5.1794 5.07132C5.1407 5.07132 5.1084 5.03963 5.1084 4.9999C5.1084 4.96017 5.1407 4.92847 5.1794 4.92847C5.2181 4.92847 5.25041 4.96017 5.25041 4.9999C5.25041 5.03963 5.2181 5.07132 5.1794 5.07132ZM4.1084 4.9999C4.1084 4.4084 4.5879 3.92847 5.1794 3.92847C5.7709 3.92847 6.25041 4.4084 6.25041 4.9999C6.25041 5.59139 5.7709 6.07132 5.1794 6.07132C4.5879 6.07132 4.1084 5.59139 4.1084 4.9999Z" fill="currentColor"/>
</svg>
