<svg width="24" height="24" viewBox="0 0 24 24" fill="none" xmlns="http://www.w3.org/2000/svg">
<path fill-rule="evenodd" clip-rule="evenodd" d="M12.54 2.46143L8.50151 5.20176L12.7209 7.65443L12.6633 6.00194C16.1777 6.0886 19 8.96467 19 12.4999C19 16.0898 16.0899 18.9999 12.5 18.9999C8.91015 18.9999 6 16.0898 6 12.4999C6 11.9476 5.55228 11.4999 5 11.4999C4.44772 11.4999 4 11.9476 4 12.4999C4 17.1943 7.80558 20.9999 12.5 20.9999C17.1944 20.9999 21 17.1943 21 12.4999C21 7.83674 17.2449 4.0506 12.5936 4.00043L12.54 2.46143Z" fill="currentColor"/>
</svg>
