<svg width="25" height="24" viewBox="0 0 25 24" fill="none" xmlns="http://www.w3.org/2000/svg">
<path d="M12.9902 5.37838C15.5969 5.37838 17.7125 7.55784 17.7125 10.2432V17.0541H8.26801V10.2432C8.26801 7.55784 10.3836 5.37838 12.9902 5.37838ZM12.9902 1C12.2063 1 11.5736 1.65189 11.5736 2.45946V3.59784C8.60801 4.25946 6.37912 6.98378 6.37912 10.2432V16.0811L4.49023 18.027V19H21.4902V18.027L19.6013 16.0811V10.2432C19.6013 6.98378 17.3725 4.25946 14.4069 3.59784V2.45946C14.4069 1.65189 13.7741 1 12.9902 1Z" fill="#323232"/>
<path d="M12.9802 21.99C11.8802 21.99 10.9902 21.1 10.9902 20H14.9702C14.9702 21.1 14.0802 21.99 12.9802 21.99Z" fill="#4E5254"/>
</svg>
