<svg width="16" height="16" viewBox="0 0 16 16" fill="none" xmlns="http://www.w3.org/2000/svg">
<path fill-rule="evenodd" clip-rule="evenodd" d="M7.99686 0C3.58031 0 0 3.58346 0 8C0 12.4165 3.58031 16 7.99686 16C12.4134 16 15.9937 12.4165 15.9937 8C15.9937 3.58346 12.4134 0 7.99686 0ZM7.99649 8.71405C7.60288 8.71405 7.28288 8.3944 7.28288 7.99977C7.28288 7.60514 7.60288 7.28548 7.99649 7.28548C8.39009 7.28548 8.7101 7.60514 8.7101 7.99977C8.7101 8.3944 8.39009 8.71405 7.99649 8.71405ZM6.28288 7.99977C6.28288 7.05337 7.05009 6.28548 7.99649 6.28548C8.94289 6.28548 9.7101 7.05337 9.7101 7.99977C9.7101 8.94617 8.94289 9.71405 7.99649 9.71405C7.05009 9.71405 6.28288 8.94617 6.28288 7.99977Z" fill="currentColor"/>
</svg>
