<svg width="17" height="16" viewBox="0 0 17 16" fill="none" xmlns="http://www.w3.org/2000/svg">
<path fill-rule="evenodd" clip-rule="evenodd" d="M8.99051 15C5.12676 15 1.99365 11.8648 1.99365 8C1.99365 4.13523 5.12676 1 8.99051 1C12.8543 1 15.9874 4.13523 15.9874 8C15.9874 11.8648 12.8543 15 8.99051 15ZM0.993652 8C0.993652 3.58346 4.57397 0 8.99051 0C13.407 0 16.9874 3.58346 16.9874 8C16.9874 12.4165 13.407 16 8.99051 16C4.57397 16 0.993652 12.4165 0.993652 8ZM8.99014 8.71405C8.59654 8.71405 8.27653 8.3944 8.27653 7.99977C8.27653 7.60514 8.59654 7.28548 8.99014 7.28548C9.38375 7.28548 9.70376 7.60514 9.70376 7.99977C9.70376 8.3944 9.38375 8.71405 8.99014 8.71405ZM7.27653 7.99977C7.27653 7.05337 8.04374 6.28548 8.99014 6.28548C9.93654 6.28548 10.7038 7.05337 10.7038 7.99977C10.7038 8.94617 9.93654 9.71405 8.99014 9.71405C8.04374 9.71405 7.27653 8.94617 7.27653 7.99977Z" fill="currentColor"/>
</svg>
