<svg width="48" height="49" viewBox="0 0 48 49" fill="none" xmlns="http://www.w3.org/2000/svg">
<g opacity="0.4">
<rect width="3.56474" height="1.42717" transform="matrix(-0.59383 -0.804591 -0.806293 0.591516 39.2124 43.312)" fill="currentColor"/>
</g>
<g opacity="0.42">
<rect width="3.5637" height="1.42758" transform="matrix(-0.506367 -0.862318 -0.863643 0.504103 37.1621 44.7827)" fill="currentColor"/>
</g>
<g opacity="0.43">
<rect width="3.56279" height="1.42795" transform="matrix(-0.413291 -0.910599 -0.911531 0.411232 34.9688 46.0316)" fill="currentColor"/>
</g>
<g opacity="0.44">
<rect width="3.56203" height="1.42825" transform="matrix(-0.315624 -0.948884 -0.94945 0.313918 32.6567 47.0454)" fill="currentColor"/>
</g>
<g opacity="0.64">
<rect width="3.56145" height="1.42848" transform="matrix(-0.214445 -0.976736 -0.977005 0.213218 30.251 47.8121)" fill="currentColor"/>
</g>
<g opacity="0.64">
<rect width="3.56109" height="1.42862" transform="matrix(-0.110877 -0.993834 -0.993907 0.11022 27.7778 48.3241)" fill="currentColor"/>
</g>
<g opacity="0.64">
<rect width="3.56096" height="1.42868" transform="matrix(-0.00607336 -0.999982 -0.999982 0.00603693 25.2646 48.5753)" fill="currentColor"/>
</g>
<g opacity="0.64">
<rect width="3.56107" height="1.42864" transform="matrix(0.0987985 -0.995107 -0.995166 -0.0982116 22.7393 48.564)" fill="currentColor"/>
</g>
<g opacity="0.64">
<rect width="3.5614" height="1.4285" transform="matrix(0.202569 -0.979268 -0.979509 -0.201403 20.2285 48.2888)" fill="currentColor"/>
</g>
<g opacity="0.64">
<rect width="3.56195" height="1.42828" transform="matrix(0.304082 -0.952646 -0.953173 -0.302425 17.7603 47.7539)" fill="currentColor"/>
</g>
<g opacity="0.64">
<rect width="3.56269" height="1.42799" transform="matrix(0.402211 -0.915547 -0.916434 -0.400186 15.3623 46.9644)" fill="currentColor"/>
</g>
<g opacity="0.64">
<rect width="3.56359" height="1.42763" transform="matrix(0.495872 -0.868396 -0.869676 -0.493623 13.0591 45.9297)" fill="currentColor"/>
</g>
<g opacity="0.64">
<rect width="3.56461" height="1.42722" transform="matrix(0.584034 -0.81173 -0.813391 -0.581718 10.8784 44.6605)" fill="currentColor"/>
</g>
<g opacity="0.64">
<rect width="3.56571" height="1.42678" transform="matrix(0.665734 -0.746189 -0.748175 -0.663502 8.84131 43.1707)" fill="currentColor"/>
</g>
<g opacity="0.64">
<rect width="3.56683" height="1.42633" transform="matrix(0.740088 -0.672511 -0.674725 -0.73807 6.80322 41.2922)" fill="currentColor"/>
</g>
<g opacity="0.64">
<rect width="3.56793" height="1.42589" transform="matrix(0.806293 -0.591516 0.59383 0.804591 4.10059 37.9847)" fill="currentColor"/>
</g>
<g opacity="0.64">
<rect width="3.56896" height="1.42548" transform="matrix(0.863643 -0.504103 0.506367 0.862318 2.80127 35.8253)" fill="currentColor"/>
</g>
<g opacity="0.64">
<rect width="3.56987" height="1.42512" transform="matrix(0.911531 -0.411232 0.413291 0.910599 1.73584 33.5425)" fill="currentColor"/>
</g>
<g opacity="0.66">
<rect width="3.57063" height="1.42481" transform="matrix(0.94945 -0.313918 0.315624 0.948884 0.915039 31.1608)" fill="currentColor"/>
</g>
<g opacity="0.68">
<rect width="3.5712" height="1.42458" transform="matrix(0.977005 -0.213218 0.214445 0.976736 0.348145 28.7072)" fill="currentColor"/>
</g>
<g opacity="0.7">
<rect width="3.57156" height="1.42444" transform="matrix(0.993907 -0.11022 0.110877 0.993834 0.0419922 26.2074)" fill="currentColor"/>
</g>
<g opacity="0.72">
<rect y="23.6901" width="3.57169" height="1.42439" transform="rotate(-0.346935 0 23.6901)" fill="currentColor"/>
</g>
<g opacity="0.74">
<rect width="3.57159" height="1.42443" transform="matrix(0.995166 0.0982116 -0.0987985 0.995107 0.22168 21.1814)" fill="currentColor"/>
</g>
<g opacity="0.75">
<rect width="3.57125" height="1.42456" transform="matrix(0.979509 0.201403 -0.202569 0.979268 0.705078 18.7098)" fill="currentColor"/>
</g>
<g opacity="0.76">
<rect width="3.57071" height="1.42478" transform="matrix(0.953173 0.302425 -0.304082 0.952646 1.44482 16.3021)" fill="currentColor"/>
</g>
<g opacity="0.77">
<rect width="3.56997" height="1.42508" transform="matrix(0.916434 0.400186 -0.402211 0.915547 2.43359 13.985)" fill="currentColor"/>
</g>
<g opacity="0.79">
<rect width="3.56907" height="1.42544" transform="matrix(0.869676 0.493623 -0.495872 0.868396 3.66016 11.7831)" fill="currentColor"/>
</g>
<g opacity="0.8">
<rect width="3.56805" height="1.42584" transform="matrix(0.813391 0.581718 -0.584034 0.81173 5.10986 9.72131)" fill="currentColor"/>
</g>
<g opacity="0.81">
<rect width="3.56696" height="1.42628" transform="matrix(0.748175 0.663502 -0.665734 0.746189 6.76855 7.82202)" fill="currentColor"/>
</g>
<g opacity="0.82">
<rect width="3.56584" height="1.42673" transform="matrix(0.674725 0.73807 -0.740088 0.672511 8.6167 6.10608)" fill="currentColor"/>
</g>
<g opacity="0.84">
<rect width="3.56474" height="1.42717" transform="matrix(-0.59383 -0.804591 -0.806293 0.591516 12.6831 7.45422)" fill="currentColor"/>
</g>
<g opacity="0.85">
<rect width="3.5637" height="1.42758" transform="matrix(-0.506367 -0.862318 -0.863643 0.504103 14.4971 6.3894)" fill="currentColor"/>
</g>
<g opacity="0.87">
<rect width="3.56279" height="1.42795" transform="matrix(-0.413291 -0.910599 -0.911531 0.411232 16.4141 5.51953)" fill="currentColor"/>
</g>
<g opacity="0.89">
<rect width="3.56203" height="1.42825" transform="matrix(-0.315624 -0.948884 -0.94945 0.313918 18.4106 4.85376)" fill="currentColor"/>
</g>
<g opacity="0.91">
<rect width="3.56145" height="1.42848" transform="matrix(-0.214445 -0.976736 -0.977005 0.213218 20.4668 4.40027)" fill="currentColor"/>
</g>
<g opacity="0.93">
<rect width="3.56109" height="1.42862" transform="matrix(-0.110877 -0.993834 -0.993907 0.11022 22.5586 4.16296)" fill="currentColor"/>
</g>
<g opacity="0.98">
<rect width="3.56096" height="1.42868" transform="matrix(-0.00607336 -0.999982 -0.999982 0.00603693 24.6641 4.1449)" fill="currentColor"/>
</g>
<g opacity="0.24">
<rect width="3.56107" height="1.42864" transform="matrix(0.0987985 -0.995107 -0.995166 -0.0982116 26.7598 4.34668)" fill="currentColor"/>
</g>
<g opacity="0.24">
<rect width="3.5614" height="1.4285" transform="matrix(0.202569 -0.979268 -0.979509 -0.201403 28.8232 4.76611)" fill="currentColor"/>
</g>
<g opacity="0.24">
<rect width="3.56195" height="1.42828" transform="matrix(0.304082 -0.952646 -0.953173 -0.302425 30.8311 5.39795)" fill="currentColor"/>
</g>
<g opacity="0.24">
<rect width="3.56269" height="1.42799" transform="matrix(0.402211 -0.915547 -0.916434 -0.400186 32.7617 6.23547)" fill="currentColor"/>
</g>
<g opacity="0.24">
<rect width="3.56359" height="1.42763" transform="matrix(0.495872 -0.868396 -0.869676 -0.493623 34.5942 7.26965)" fill="currentColor"/>
</g>
<g opacity="0.24">
<rect width="3.56461" height="1.42722" transform="matrix(0.584034 -0.81173 -0.813391 -0.581718 36.3076 8.48926)" fill="currentColor"/>
</g>
<g opacity="0.24">
<rect width="3.56571" height="1.42678" transform="matrix(0.665734 -0.746189 -0.748175 -0.663502 37.8843 9.88086)" fill="currentColor"/>
</g>
<g opacity="0.24">
<rect width="3.56683" height="1.42633" transform="matrix(0.740088 -0.672511 -0.674725 -0.73807 39.2036 11.316)" fill="currentColor"/>
</g>
<g opacity="0.24">
<rect width="3.56793" height="1.42589" transform="matrix(0.806293 -0.591516 0.59383 0.804591 39.6812 11.8458)" fill="currentColor"/>
</g>
<g opacity="0.24">
<rect width="3.56896" height="1.42548" transform="matrix(0.863643 -0.504103 0.506367 0.862318 41.0786 13.7076)" fill="currentColor"/>
</g>
<g opacity="0.24">
<rect width="3.56987" height="1.42512" transform="matrix(0.911531 -0.411232 0.413291 0.910599 42.2251 15.6169)" fill="currentColor"/>
</g>
<g opacity="0.24">
<rect width="3.57063" height="1.42481" transform="matrix(0.94945 -0.313918 0.315624 0.948884 43.0889 17.5317)" fill="currentColor"/>
</g>
<g opacity="0.24">
<rect width="3.5712" height="1.42458" transform="matrix(0.977005 -0.213218 0.214445 0.976736 43.7466 19.5259)" fill="currentColor"/>
</g>
<g opacity="0.24">
<rect width="3.57156" height="1.42444" transform="matrix(0.993907 -0.11022 0.110877 0.993834 44.1919 21.5774)" fill="currentColor"/>
</g>
<g opacity="0.24">
<rect width="3.57169" height="1.42439" transform="matrix(0.999982 -0.00603693 0.00607336 0.999982 44.4199 23.6647)" fill="currentColor"/>
</g>
<g opacity="0.26">
<rect width="3.57159" height="1.42443" transform="matrix(0.995166 0.0982116 -0.0987985 0.995107 44.4272 25.7635)" fill="currentColor"/>
</g>
<g opacity="0.28">
<rect width="3.57125" height="1.42456" transform="matrix(0.979509 0.201403 -0.202569 0.979268 44.2144 27.8523)" fill="currentColor"/>
</g>
<g opacity="0.3">
<rect width="3.57071" height="1.42478" transform="matrix(0.953173 0.302425 -0.304082 0.952646 43.7847 29.907)" fill="currentColor"/>
</g>
<g opacity="0.32">
<rect width="3.56997" height="1.42508" transform="matrix(0.916434 0.400186 -0.402211 0.915547 43.1406 31.9059)" fill="currentColor"/>
</g>
<g opacity="0.33">
<rect width="3.56907" height="1.42544" transform="matrix(0.869676 0.493623 -0.495872 0.868396 42.2915 33.8267)" fill="currentColor"/>
</g>
<g opacity="0.34">
<rect width="3.56805" height="1.42584" transform="matrix(0.813391 0.581718 -0.584034 0.81173 41.2456 35.6488)" fill="currentColor"/>
</g>
<g opacity="0.35">
<rect width="3.56696" height="1.42628" transform="matrix(0.748175 0.663502 -0.665734 0.746189 40.0142 37.3517)" fill="currentColor"/>
</g>
<g opacity="0.38">
<rect width="3.56584" height="1.42673" transform="matrix(0.674725 0.73807 -0.740088 0.672511 38.6113 38.9166)" fill="currentColor"/>
</g>
</svg>
