<svg width="24" height="24" viewBox="0 0 24 24" fill="none" xmlns="http://www.w3.org/2000/svg">
<path fill-rule="evenodd" clip-rule="evenodd" d="M10 3C9.44772 3 9 3.44772 9 4V4.5H15V4C15 3.44772 14.5523 3 14 3H10ZM2.75 6.75C2.75 6.19772 3.19772 5.75 3.75 5.75H20.25C20.8023 5.75 21.25 6.19772 21.25 6.75C21.25 7.30228 20.8023 7.75 20.25 7.75H3.75C3.19772 7.75 2.75 7.30228 2.75 6.75ZM16.9999 9.0009L16.9999 9.00083C17 8.99994 17 8.99968 17 9H19C19 9.26882 18.9173 9.90519 18.8203 10.593C18.7168 11.327 18.5784 12.2398 18.4379 13.1429C18.1567 14.95 17.8647 16.7328 17.8209 16.9999C17.8192 17.0103 17.8177 17.0203 17.8144 17.0451C17.6866 17.9898 17.2903 18.7559 16.5305 19.2298C15.8405 19.6602 14.9974 19.75 14.2033 19.75H10.5C9.69205 19.75 8.75054 19.654 7.94642 19.2941C7.09843 18.9146 6.35246 18.2075 6.18685 17.053L6.18359 17.0302C6.18138 17.0147 6.18055 17.0088 6.17909 16.9999C6.13526 16.7328 5.84325 14.95 5.56205 13.1429C5.42153 12.2398 5.28313 11.327 5.17966 10.593C5.0827 9.90519 4.99999 9.26882 4.99999 9H6.99999C6.99999 8.99967 7 8.99996 7.00004 9.00089V9.0009V9.0009C7.00029 9.00689 7.00164 9.03947 7.00808 9.11101C7.01485 9.18605 7.0253 9.2838 7.03953 9.40373C7.06795 9.64321 7.10927 9.95338 7.16008 10.3138C7.26155 11.0336 7.39824 11.9355 7.53827 12.8354C7.81817 14.6341 8.10911 16.4105 8.15268 16.676C8.15798 16.7083 8.16248 16.74 8.16521 16.7593L8.16658 16.769C8.21167 17.0833 8.37743 17.2958 8.76344 17.4686C9.19332 17.661 9.80809 17.75 10.5 17.75H14.2033C14.909 17.75 15.2766 17.6548 15.472 17.5329C15.5976 17.4546 15.7615 17.3012 15.8324 16.777L16.8234 16.911L15.8324 16.777C15.836 16.7507 15.8406 16.7164 15.8473 16.676C15.8909 16.4105 16.1818 14.6341 16.4617 12.8354C16.6017 11.9355 16.7384 11.0336 16.8399 10.3138C16.8907 9.95338 16.932 9.64321 16.9604 9.40373C16.9747 9.2838 16.9851 9.18605 16.9919 9.11101C16.9983 9.03944 16.9997 9.00687 16.9999 9.0009Z" fill="currentColor"/>
</svg>
