<svg width="24" height="24" viewBox="0 0 24 24" fill="none" xmlns="http://www.w3.org/2000/svg">
<path d="M11.999 5.33333C11.1323 5.33333 10.3056 5.26667 9.6123 5.14667L10.079 3.45333C10.3323 2.56 11.0923 2 11.999 2C12.9056 2 13.6656 2.56 13.919 3.44L14.3856 5.14667C13.6923 5.26667 12.8656 5.33333 11.999 5.33333ZM16.3856 12.4533C15.7323 12.96 14.0123 13.3333 11.999 13.3333C9.98564 13.3333 8.26564 12.96 7.6123 12.4533L8.58564 8.90667C9.42564 9.17333 10.6523 9.33333 11.999 9.33333C13.3456 9.33333 14.5723 9.17333 15.4123 8.90667L16.3856 12.4533Z" fill="currentColor"/>
<path d="M21.9285 21.0346L19.2618 15.7013C19.2064 15.5907 19.1213 15.4977 19.016 15.4327C18.9108 15.3677 18.7895 15.3333 18.6658 15.3333H17.1324C17.1324 15.3333 18.6657 18 11.999 18C5.33236 18 6.86569 15.3333 6.86569 15.3333H5.33249C5.20879 15.3333 5.08752 15.3677 4.98227 15.4327C4.87701 15.4977 4.79191 15.5907 4.73649 15.7013L2.06982 21.0346C2.01928 21.1363 1.99549 21.2492 2.0007 21.3626C2.00591 21.4761 2.03995 21.5863 2.09961 21.6829C2.15926 21.7795 2.24255 21.8593 2.34162 21.9148C2.4407 21.9703 2.55228 21.9996 2.66582 22H21.3325C21.5632 22 21.7778 21.88 21.9005 21.684C21.9599 21.587 21.9937 21.4765 21.9986 21.3629C22.0035 21.2493 21.9794 21.1363 21.9285 21.0346Z" fill="currentColor"/>
</svg>
